<svg width="57" height="57" viewBox="0 0 57 57" fill="none" xmlns="http://www.w3.org/2000/svg">
<path d="M55.2136 28.9214C55.2136 23.0591 51.0787 18.1504 45.5731 16.9427V5.25844C45.5731 2.84219 43.6073 0.876408 41.1911 0.876408H18.4045C15.9883 0.876408 14.0225 2.84219 14.0225 5.25844V14.8989H8.95599L8.42752 17.0163L6.55727 15.8936L1.87025 20.578L2.99292 22.45L0.876404 22.9785V29.6059L2.9938 30.1344L1.87025 32.0064L6.55639 36.6916L8.42664 35.5689L8.95599 37.6855H14.0225V50.8316C14.0225 53.2478 15.9883 55.2136 18.4045 55.2136H41.1911C43.6073 55.2136 45.5731 53.2478 45.5731 50.8316V40.9001C51.0787 39.6924 55.2136 34.7837 55.2136 28.9214ZM53.4608 28.9214C53.4608 30.6295 53.0427 32.2386 52.3171 33.6663C51.8307 32.328 50.7115 31.2754 49.2654 30.9135L45.5731 29.9897V29.7803C46.6651 28.9573 47.3259 27.6629 47.3259 26.2931V24.5403C47.3259 23.3159 46.808 22.138 45.9044 21.3089C45.0017 20.4825 43.7782 20.0671 42.5548 20.1749C40.3156 20.3686 38.5619 22.3668 38.5619 24.7208V26.2922C38.5619 27.662 39.2227 28.9565 40.3147 29.7794V29.9889L36.6224 30.9126C35.1763 31.2746 34.0571 32.3271 33.5707 33.6654C32.8451 32.2386 32.427 30.6295 32.427 28.9214C32.427 23.1222 37.1447 18.4045 42.9439 18.4045C48.7431 18.4045 53.4608 23.1222 53.4608 28.9214ZM40.3147 16.9427C39.7117 17.075 39.128 17.2573 38.5619 17.4747V14.8989H21.0337V27.1686H30.8144C30.7312 27.7426 30.6742 28.3246 30.6742 28.9214C30.6742 34.7837 34.8091 39.6924 40.3147 40.9001V42.9439H19.2809V13.1461H40.3147V16.9427ZM31.1913 25.4158H22.7866V16.6517H36.8091V18.3116C34.1325 19.8655 32.094 22.3948 31.1913 25.4158ZM18.4045 2.62922H41.1911C42.6407 2.62922 43.8203 3.80886 43.8203 5.25844V7.88766H15.7753V5.25844C15.7753 3.80886 16.955 2.62922 18.4045 2.62922V2.62922ZM14.0225 30.2991C13.4695 30.5428 12.8727 30.6742 12.2697 30.6742C9.85343 30.6742 7.88765 28.7084 7.88765 26.2922C7.88765 23.8759 9.85343 21.9102 12.2697 21.9102C12.8727 21.9102 13.4695 22.0416 14.0225 22.2853V30.2991ZM10.3249 35.9327L9.89813 34.2245L9.72022 33.7557L8.71936 33.349L6.82808 34.4848L4.07792 31.7338L5.21374 29.8416L4.77553 28.7724L2.62922 28.2369V24.3474L4.77291 23.812L5.21374 22.7427L4.07792 20.8506L6.82808 18.0995L8.71936 19.2354L9.78858 18.8007L10.3249 16.6517H14.0225V20.4246C13.4537 20.2537 12.8648 20.1573 12.2697 20.1573C8.88676 20.1573 6.13484 22.9101 6.13484 26.2922C6.13484 29.6742 8.88676 32.427 12.2697 32.427C12.8648 32.427 13.4537 32.3306 14.0225 32.1597V35.9327H10.3249ZM41.1911 53.4608H18.4045C16.955 53.4608 15.7753 52.2811 15.7753 50.8316V48.2023H43.8203V50.8316C43.8203 52.2811 42.6407 53.4608 41.1911 53.4608ZM43.8203 46.4495H15.7753V9.64047H43.8203V16.6964C43.5293 16.6754 43.2401 16.6517 42.9439 16.6517C42.6477 16.6517 42.3585 16.6754 42.0675 16.6964V11.3933H17.5281V44.6967H42.0675V41.1464C42.3585 41.1674 42.6477 41.1911 42.9439 41.1911C43.2401 41.1911 43.5293 41.1674 43.8203 41.1464V46.4495ZM42.9439 39.4383C39.802 39.4383 36.9852 38.0457 35.0562 35.8547V35.164C35.0562 33.9555 35.8757 32.9064 37.0474 32.6128L42.0675 31.3587V28.8075L41.6319 28.5542C40.8072 28.0739 40.3147 27.2282 40.3147 26.2922V24.7208C40.3147 23.2668 41.3655 22.0372 42.7064 21.9207C43.4584 21.8602 44.1709 22.0968 44.7204 22.6008C45.262 23.0977 45.5731 23.8041 45.5731 24.5394V26.2922C45.5731 27.2282 45.0806 28.0739 44.2559 28.5542L43.8203 28.8075V31.3587L48.8404 32.6128C50.0121 32.9064 50.8316 33.9555 50.8316 35.164V35.8547C48.9026 38.0457 46.0858 39.4383 42.9439 39.4383Z" fill="url(#paint0_linear)"/>
<path d="M33.3034 4.38203H35.0563V6.13484H33.3034V4.38203Z" fill="url(#paint1_linear)"/>
<path d="M24.5394 4.38203H31.5506V6.13484H24.5394V4.38203Z" fill="url(#paint2_linear)"/>
<path d="M26.2922 49.9552H33.3034V51.708H26.2922V49.9552Z" fill="url(#paint3_linear)"/>
<path d="M38.5619 49.9552H40.3147V51.708H38.5619V49.9552Z" fill="url(#paint4_linear)"/>
<path d="M19.2809 49.9552H21.0338V51.708H19.2809V49.9552Z" fill="url(#paint5_linear)"/>
<path d="M21.0338 28.9214H28.9214V30.6742H21.0338V28.9214Z" fill="url(#paint6_linear)"/>
<path d="M21.0338 32.427H28.9214V34.1798H21.0338V32.427Z" fill="url(#paint7_linear)"/>
<path d="M21.0338 35.9327H28.9214V37.6855H21.0338V35.9327Z" fill="url(#paint8_linear)"/>
<path d="M21.0338 39.4383H28.9214V41.1911H21.0338V39.4383Z" fill="url(#paint9_linear)"/>
<defs>
<linearGradient id="paint0_linear" x1="28.045" y1="0.876408" x2="28.045" y2="55.2136" gradientUnits="userSpaceOnUse">
<stop stop-color="#615CFD"/>
<stop offset="1" stop-color="#D465EF"/>
</linearGradient>
<linearGradient id="paint1_linear" x1="34.1798" y1="4.38203" x2="34.1798" y2="6.13484" gradientUnits="userSpaceOnUse">
<stop stop-color="#615CFD"/>
<stop offset="1" stop-color="#D465EF"/>
</linearGradient>
<linearGradient id="paint2_linear" x1="28.045" y1="4.38203" x2="28.045" y2="6.13484" gradientUnits="userSpaceOnUse">
<stop stop-color="#615CFD"/>
<stop offset="1" stop-color="#D465EF"/>
</linearGradient>
<linearGradient id="paint3_linear" x1="29.7978" y1="49.9552" x2="29.7978" y2="51.708" gradientUnits="userSpaceOnUse">
<stop stop-color="#615CFD"/>
<stop offset="1" stop-color="#D465EF"/>
</linearGradient>
<linearGradient id="paint4_linear" x1="39.4383" y1="49.9552" x2="39.4383" y2="51.708" gradientUnits="userSpaceOnUse">
<stop stop-color="#615CFD"/>
<stop offset="1" stop-color="#D465EF"/>
</linearGradient>
<linearGradient id="paint5_linear" x1="20.1574" y1="49.9552" x2="20.1574" y2="51.708" gradientUnits="userSpaceOnUse">
<stop stop-color="#615CFD"/>
<stop offset="1" stop-color="#D465EF"/>
</linearGradient>
<linearGradient id="paint6_linear" x1="24.9776" y1="28.9214" x2="24.9776" y2="30.6742" gradientUnits="userSpaceOnUse">
<stop stop-color="#615CFD"/>
<stop offset="1" stop-color="#D465EF"/>
</linearGradient>
<linearGradient id="paint7_linear" x1="24.9776" y1="32.427" x2="24.9776" y2="34.1798" gradientUnits="userSpaceOnUse">
<stop stop-color="#615CFD"/>
<stop offset="1" stop-color="#D465EF"/>
</linearGradient>
<linearGradient id="paint8_linear" x1="24.9776" y1="35.9327" x2="24.9776" y2="37.6855" gradientUnits="userSpaceOnUse">
<stop stop-color="#615CFD"/>
<stop offset="1" stop-color="#D465EF"/>
</linearGradient>
<linearGradient id="paint9_linear" x1="24.9776" y1="39.4383" x2="24.9776" y2="41.1911" gradientUnits="userSpaceOnUse">
<stop stop-color="#615CFD"/>
<stop offset="1" stop-color="#D465EF"/>
</linearGradient>
</defs>
</svg>
